# xmcd
#
# Track frame offsets:
#	150
#	17962
#	32624
#	51111
#	67948
#	81485
#	99747
#	116059
#	131805
#	149167
#	162329
#	180141
#	196978
#	214265
#	230202
#	248014
#	262526
#	282513
#
# Disc length: 3998 seconds
#
# Revision: 2
# Processed by: cddbd v1.5.2PL0 Copyright (c) Steve Scherf et al.
# Submitted via: audiograbber 1.83.01
#
DISCID=0b0f9c12
DTITLE=Various Artist - Promo Only - Country Radio - May 2007
DYEAR=2007
DGENRE=Country
TTITLE0=Brad Paisley - Ticks
TTITLE1=Craig Morgan - Tough
TTITLE2=George Strait - Wrapped
TTITLE3=Tracy Lawrence - Find Out Who Your Friends Are
TTITLE4=Terry Clark - Dirty Girl
TTITLE5=Miranda Lambert - Famous In A Small Town
TTITLE6=Trent Tomlinson - Just Might Have Her Radio On
TTITLE7=Rodney Atkins - These Are My People
TTITLE8=The Wreckers - Tennessee
TTITLE9=Chris Young - You're Gonna Love Me
TTITLE10=Jamie O'Neal - God Don't Make Mistakes
TTITLE11=Lance Miller - She Really Loves Me
TTITLE12=Carolyn Dawn Johnson - Got A Good Day
TTITLE13=Darryl Worley - Living In The Here And Now
TTITLE14=Kenny Rogers - Calling Me (Ft. Don Henley)
TTITLE15=Amy Dalley - Good Kind Of Crazy
TTITLE16=Jack Kapanka - Angel In My Arms
TTITLE17=Rodney Carrington - Show Them To Me
EXTD=
EXTT0=
EXTT1=
EXTT2=
EXTT3=
EXTT4=
EXTT5=
EXTT6=
EXTT7=
EXTT8=
EXTT9=
EXTT10=
EXTT11=
EXTT12=
EXTT13=
EXTT14=
EXTT15=
EXTT16=
EXTT17=
PLAYORDER=
